<?xml version="1.0" encoding="utf-8" standalone="no"?>
<!DOCTYPE svg PUBLIC "-//W3C//DTD SVG 1.1//EN"
  "http://www.w3.org/Graphics/SVG/1.1/DTD/svg11.dtd">
<!-- Created with matplotlib (https://matplotlib.org/) -->
<svg height="268.003125pt" version="1.1" viewBox="0 0 372.103125 268.003125" width="372.103125pt" xmlns="http://www.w3.org/2000/svg" xmlns:xlink="http://www.w3.org/1999/xlink">
 <metadata>
  <rdf:RDF xmlns:cc="http://creativecommons.org/ns#" xmlns:dc="http://purl.org/dc/elements/1.1/" xmlns:rdf="http://www.w3.org/1999/02/22-rdf-syntax-ns#">
   <cc:Work>
    <dc:type rdf:resource="http://purl.org/dc/dcmitype/StillImage"/>
    <dc:date>2021-01-11T13:15:50.011237</dc:date>
    <dc:format>image/svg+xml</dc:format>
    <dc:creator>
     <cc:Agent>
      <dc:title>Matplotlib v3.3.3, https://matplotlib.org/</dc:title>
     </cc:Agent>
    </dc:creator>
   </cc:Work>
  </rdf:RDF>
 </metadata>
 <defs>
  <style type="text/css">*{stroke-linecap:butt;stroke-linejoin:round;}</style>
 </defs>
 <g id="figure_1">
  <g id="patch_1">
   <path d="M 0 268.003125 
L 372.103125 268.003125 
L 372.103125 0 
L 0 0 
z
" style="fill:none;"/>
  </g>
  <g id="axes_1">
   <g id="patch_2">
    <path d="M 30.103125 224.64 
L 364.903125 224.64 
L 364.903125 7.2 
L 30.103125 7.2 
z
" style="fill:#ffffff;"/>
   </g>
   <g id="matplotlib.axis_1">
    <g id="xtick_1">
     <g id="line2d_1">
      <defs>
       <path d="M 0 0 
L 0 3.5 
" id="m723c2f1aa9" style="stroke:#000000;stroke-width:0.8;"/>
      </defs>
      <g>
       <use style="stroke:#000000;stroke-width:0.8;" x="45.321307" xlink:href="#m723c2f1aa9" y="224.64"/>
      </g>
     </g>
     <g id="text_1">
      <!-- $\mathdefault{10^{-2}}$ -->
      <g transform="translate(33.571307 239.238438)scale(0.1 -0.1)">
       <defs>
        <path d="M 12.40625 8.296875 
L 28.515625 8.296875 
L 28.515625 63.921875 
L 10.984375 60.40625 
L 10.984375 69.390625 
L 28.421875 72.90625 
L 38.28125 72.90625 
L 38.28125 8.296875 
L 54.390625 8.296875 
L 54.390625 0 
L 12.40625 0 
z
" id="DejaVuSans-49"/>
        <path d="M 31.78125 66.40625 
Q 24.171875 66.40625 20.328125 58.90625 
Q 16.5 51.421875 16.5 36.375 
Q 16.5 21.390625 20.328125 13.890625 
Q 24.171875 6.390625 31.78125 6.390625 
Q 39.453125 6.390625 43.28125 13.890625 
Q 47.125 21.390625 47.125 36.375 
Q 47.125 51.421875 43.28125 58.90625 
Q 39.453125 66.40625 31.78125 66.40625 
z
M 31.78125 74.21875 
Q 44.046875 74.21875 50.515625 64.515625 
Q 56.984375 54.828125 56.984375 36.375 
Q 56.984375 17.96875 50.515625 8.265625 
Q 44.046875 -1.421875 31.78125 -1.421875 
Q 19.53125 -1.421875 13.0625 8.265625 
Q 6.59375 17.96875 6.59375 36.375 
Q 6.59375 54.828125 13.0625 64.515625 
Q 19.53125 74.21875 31.78125 74.21875 
z
" id="DejaVuSans-48"/>
        <path d="M 10.59375 35.5 
L 73.1875 35.5 
L 73.1875 27.203125 
L 10.59375 27.203125 
z
" id="DejaVuSans-8722"/>
        <path d="M 19.1875 8.296875 
L 53.609375 8.296875 
L 53.609375 0 
L 7.328125 0 
L 7.328125 8.296875 
Q 12.9375 14.109375 22.625 23.890625 
Q 32.328125 33.6875 34.8125 36.53125 
Q 39.546875 41.84375 41.421875 45.53125 
Q 43.3125 49.21875 43.3125 52.78125 
Q 43.3125 58.59375 39.234375 62.25 
Q 35.15625 65.921875 28.609375 65.921875 
Q 23.96875 65.921875 18.8125 64.3125 
Q 13.671875 62.703125 7.8125 59.421875 
L 7.8125 69.390625 
Q 13.765625 71.78125 18.9375 73 
Q 24.125 74.21875 28.421875 74.21875 
Q 39.75 74.21875 46.484375 68.546875 
Q 53.21875 62.890625 53.21875 53.421875 
Q 53.21875 48.921875 51.53125 44.890625 
Q 49.859375 40.875 45.40625 35.40625 
Q 44.1875 33.984375 37.640625 27.21875 
Q 31.109375 20.453125 19.1875 8.296875 
z
" id="DejaVuSans-50"/>
       </defs>
       <use transform="translate(0 0.765625)" xlink:href="#DejaVuSans-49"/>
       <use transform="translate(63.623047 0.765625)" xlink:href="#DejaVuSans-48"/>
       <use transform="translate(128.203125 39.046875)scale(0.7)" xlink:href="#DejaVuSans-8722"/>
       <use transform="translate(186.855469 39.046875)scale(0.7)" xlink:href="#DejaVuSans-50"/>
      </g>
     </g>
    </g>
    <g id="xtick_2">
     <g id="line2d_2">
      <g>
       <use style="stroke:#000000;stroke-width:0.8;" x="197.503125" xlink:href="#m723c2f1aa9" y="224.64"/>
      </g>
     </g>
     <g id="text_2">
      <!-- $\mathdefault{10^{-1}}$ -->
      <g transform="translate(185.753125 239.238438)scale(0.1 -0.1)">
       <use transform="translate(0 0.684375)" xlink:href="#DejaVuSans-49"/>
       <use transform="translate(63.623047 0.684375)" xlink:href="#DejaVuSans-48"/>
       <use transform="translate(128.203125 38.965625)scale(0.7)" xlink:href="#DejaVuSans-8722"/>
       <use transform="translate(186.855469 38.965625)scale(0.7)" xlink:href="#DejaVuSans-49"/>
      </g>
     </g>
    </g>
    <g id="xtick_3">
     <g id="line2d_3">
      <g>
       <use style="stroke:#000000;stroke-width:0.8;" x="349.684943" xlink:href="#m723c2f1aa9" y="224.64"/>
      </g>
     </g>
     <g id="text_3">
      <!-- $\mathdefault{10^{0}}$ -->
      <g transform="translate(340.884943 239.238438)scale(0.1 -0.1)">
       <use transform="translate(0 0.765625)" xlink:href="#DejaVuSans-49"/>
       <use transform="translate(63.623047 0.765625)" xlink:href="#DejaVuSans-48"/>
       <use transform="translate(128.203125 39.046875)scale(0.7)" xlink:href="#DejaVuSans-48"/>
      </g>
     </g>
    </g>
    <g id="xtick_4">
     <g id="line2d_4">
      <defs>
       <path d="M 0 0 
L 0 2 
" id="m1afc7c8126" style="stroke:#000000;stroke-width:0.6;"/>
      </defs>
      <g>
       <use style="stroke:#000000;stroke-width:0.6;" x="30.573365" xlink:href="#m1afc7c8126" y="224.64"/>
      </g>
     </g>
    </g>
    <g id="xtick_5">
     <g id="line2d_5">
      <g>
       <use style="stroke:#000000;stroke-width:0.6;" x="38.357849" xlink:href="#m1afc7c8126" y="224.64"/>
      </g>
     </g>
    </g>
    <g id="xtick_6">
     <g id="line2d_6">
      <g>
       <use style="stroke:#000000;stroke-width:0.6;" x="91.132599" xlink:href="#m1afc7c8126" y="224.64"/>
      </g>
     </g>
    </g>
    <g id="xtick_7">
     <g id="line2d_7">
      <g>
       <use style="stroke:#000000;stroke-width:0.6;" x="117.930487" xlink:href="#m1afc7c8126" y="224.64"/>
      </g>
     </g>
    </g>
    <g id="xtick_8">
     <g id="line2d_8">
      <g>
       <use style="stroke:#000000;stroke-width:0.6;" x="136.943891" xlink:href="#m1afc7c8126" y="224.64"/>
      </g>
     </g>
    </g>
    <g id="xtick_9">
     <g id="line2d_9">
      <g>
       <use style="stroke:#000000;stroke-width:0.6;" x="151.691833" xlink:href="#m1afc7c8126" y="224.64"/>
      </g>
     </g>
    </g>
    <g id="xtick_10">
     <g id="line2d_10">
      <g>
       <use style="stroke:#000000;stroke-width:0.6;" x="163.741779" xlink:href="#m1afc7c8126" y="224.64"/>
      </g>
     </g>
    </g>
    <g id="xtick_11">
     <g id="line2d_11">
      <g>
       <use style="stroke:#000000;stroke-width:0.6;" x="173.929863" xlink:href="#m1afc7c8126" y="224.64"/>
      </g>
     </g>
    </g>
    <g id="xtick_12">
     <g id="line2d_12">
      <g>
       <use style="stroke:#000000;stroke-width:0.6;" x="182.755183" xlink:href="#m1afc7c8126" y="224.64"/>
      </g>
     </g>
    </g>
    <g id="xtick_13">
     <g id="line2d_13">
      <g>
       <use style="stroke:#000000;stroke-width:0.6;" x="190.539667" xlink:href="#m1afc7c8126" y="224.64"/>
      </g>
     </g>
    </g>
    <g id="xtick_14">
     <g id="line2d_14">
      <g>
       <use style="stroke:#000000;stroke-width:0.6;" x="243.314417" xlink:href="#m1afc7c8126" y="224.64"/>
      </g>
     </g>
    </g>
    <g id="xtick_15">
     <g id="line2d_15">
      <g>
       <use style="stroke:#000000;stroke-width:0.6;" x="270.112305" xlink:href="#m1afc7c8126" y="224.64"/>
      </g>
     </g>
    </g>
    <g id="xtick_16">
     <g id="line2d_16">
      <g>
       <use style="stroke:#000000;stroke-width:0.6;" x="289.125709" xlink:href="#m1afc7c8126" y="224.64"/>
      </g>
     </g>
    </g>
    <g id="xtick_17">
     <g id="line2d_17">
      <g>
       <use style="stroke:#000000;stroke-width:0.6;" x="303.873651" xlink:href="#m1afc7c8126" y="224.64"/>
      </g>
     </g>
    </g>
    <g id="xtick_18">
     <g id="line2d_18">
      <g>
       <use style="stroke:#000000;stroke-width:0.6;" x="315.923597" xlink:href="#m1afc7c8126" y="224.64"/>
      </g>
     </g>
    </g>
    <g id="xtick_19">
     <g id="line2d_19">
      <g>
       <use style="stroke:#000000;stroke-width:0.6;" x="326.111681" xlink:href="#m1afc7c8126" y="224.64"/>
      </g>
     </g>
    </g>
    <g id="xtick_20">
     <g id="line2d_20">
      <g>
       <use style="stroke:#000000;stroke-width:0.6;" x="334.937001" xlink:href="#m1afc7c8126" y="224.64"/>
      </g>
     </g>
    </g>
    <g id="xtick_21">
     <g id="line2d_21">
      <g>
       <use style="stroke:#000000;stroke-width:0.6;" x="342.721485" xlink:href="#m1afc7c8126" y="224.64"/>
      </g>
     </g>
    </g>
    <g id="text_4">
     <!-- $\lambda$ -->
     <g transform="translate(192.703125 257.475625)scale(0.16 -0.16)">
      <defs>
       <path d="M 36.71875 67.4375 
L 48.828125 0 
L 39.3125 0 
L 31.84375 40.4375 
L 5.125 0 
L -4.390625 0 
L 29.734375 52.4375 
L 28.03125 62.109375 
Q 26.953125 68.265625 21.734375 68.265625 
L 17.046875 68.265625 
L 18.5 75.984375 
L 24.21875 75.875 
Q 35.203125 75.734375 36.71875 67.4375 
z
" id="DejaVuSans-Oblique-955"/>
      </defs>
      <use transform="translate(0 0.015625)" xlink:href="#DejaVuSans-Oblique-955"/>
     </g>
    </g>
   </g>
   <g id="matplotlib.axis_2">
    <g id="ytick_1">
     <g id="line2d_22">
      <defs>
       <path d="M 0 0 
L -3.5 0 
" id="m6c5acfbded" style="stroke:#000000;stroke-width:0.8;"/>
      </defs>
      <g>
       <use style="stroke:#000000;stroke-width:0.8;" x="30.103125" xlink:href="#m6c5acfbded" y="214.756364"/>
      </g>
     </g>
     <g id="text_5">
      <!-- 0.0 -->
      <g transform="translate(7.2 218.555582)scale(0.1 -0.1)">
       <defs>
        <path d="M 10.6875 12.40625 
L 21 12.40625 
L 21 0 
L 10.6875 0 
z
" id="DejaVuSans-46"/>
       </defs>
       <use xlink:href="#DejaVuSans-48"/>
       <use x="63.623047" xlink:href="#DejaVuSans-46"/>
       <use x="95.410156" xlink:href="#DejaVuSans-48"/>
      </g>
     </g>
    </g>
    <g id="ytick_2">
     <g id="line2d_23">
      <g>
       <use style="stroke:#000000;stroke-width:0.8;" x="30.103125" xlink:href="#m6c5acfbded" y="169.291636"/>
      </g>
     </g>
     <g id="text_6">
      <!-- 0.2 -->
      <g transform="translate(7.2 173.090855)scale(0.1 -0.1)">
       <use xlink:href="#DejaVuSans-48"/>
       <use x="63.623047" xlink:href="#DejaVuSans-46"/>
       <use x="95.410156" xlink:href="#DejaVuSans-50"/>
      </g>
     </g>
    </g>
    <g id="ytick_3">
     <g id="line2d_24">
      <g>
       <use style="stroke:#000000;stroke-width:0.8;" x="30.103125" xlink:href="#m6c5acfbded" y="123.826909"/>
      </g>
     </g>
     <g id="text_7">
      <!-- 0.4 -->
      <g transform="translate(7.2 127.626128)scale(0.1 -0.1)">
       <defs>
        <path d="M 37.796875 64.3125 
L 12.890625 25.390625 
L 37.796875 25.390625 
z
M 35.203125 72.90625 
L 47.609375 72.90625 
L 47.609375 25.390625 
L 58.015625 25.390625 
L 58.015625 17.1875 
L 47.609375 17.1875 
L 47.609375 0 
L 37.796875 0 
L 37.796875 17.1875 
L 4.890625 17.1875 
L 4.890625 26.703125 
z
" id="DejaVuSans-52"/>
       </defs>
       <use xlink:href="#DejaVuSans-48"/>
       <use x="63.623047" xlink:href="#DejaVuSans-46"/>
       <use x="95.410156" xlink:href="#DejaVuSans-52"/>
      </g>
     </g>
    </g>
    <g id="ytick_4">
     <g id="line2d_25">
      <g>
       <use style="stroke:#000000;stroke-width:0.8;" x="30.103125" xlink:href="#m6c5acfbded" y="78.362182"/>
      </g>
     </g>
     <g id="text_8">
      <!-- 0.6 -->
      <g transform="translate(7.2 82.161401)scale(0.1 -0.1)">
       <defs>
        <path d="M 33.015625 40.375 
Q 26.375 40.375 22.484375 35.828125 
Q 18.609375 31.296875 18.609375 23.390625 
Q 18.609375 15.53125 22.484375 10.953125 
Q 26.375 6.390625 33.015625 6.390625 
Q 39.65625 6.390625 43.53125 10.953125 
Q 47.40625 15.53125 47.40625 23.390625 
Q 47.40625 31.296875 43.53125 35.828125 
Q 39.65625 40.375 33.015625 40.375 
z
M 52.59375 71.296875 
L 52.59375 62.3125 
Q 48.875 64.0625 45.09375 64.984375 
Q 41.3125 65.921875 37.59375 65.921875 
Q 27.828125 65.921875 22.671875 59.328125 
Q 17.53125 52.734375 16.796875 39.40625 
Q 19.671875 43.65625 24.015625 45.921875 
Q 28.375 48.1875 33.59375 48.1875 
Q 44.578125 48.1875 50.953125 41.515625 
Q 57.328125 34.859375 57.328125 23.390625 
Q 57.328125 12.15625 50.6875 5.359375 
Q 44.046875 -1.421875 33.015625 -1.421875 
Q 20.359375 -1.421875 13.671875 8.265625 
Q 6.984375 17.96875 6.984375 36.375 
Q 6.984375 53.65625 15.1875 63.9375 
Q 23.390625 74.21875 37.203125 74.21875 
Q 40.921875 74.21875 44.703125 73.484375 
Q 48.484375 72.75 52.59375 71.296875 
z
" id="DejaVuSans-54"/>
       </defs>
       <use xlink:href="#DejaVuSans-48"/>
       <use x="63.623047" xlink:href="#DejaVuSans-46"/>
       <use x="95.410156" xlink:href="#DejaVuSans-54"/>
      </g>
     </g>
    </g>
    <g id="ytick_5">
     <g id="line2d_26">
      <g>
       <use style="stroke:#000000;stroke-width:0.8;" x="30.103125" xlink:href="#m6c5acfbded" y="32.897455"/>
      </g>
     </g>
     <g id="text_9">
      <!-- 0.8 -->
      <g transform="translate(7.2 36.696673)scale(0.1 -0.1)">
       <defs>
        <path d="M 31.78125 34.625 
Q 24.75 34.625 20.71875 30.859375 
Q 16.703125 27.09375 16.703125 20.515625 
Q 16.703125 13.921875 20.71875 10.15625 
Q 24.75 6.390625 31.78125 6.390625 
Q 38.8125 6.390625 42.859375 10.171875 
Q 46.921875 13.96875 46.921875 20.515625 
Q 46.921875 27.09375 42.890625 30.859375 
Q 38.875 34.625 31.78125 34.625 
z
M 21.921875 38.8125 
Q 15.578125 40.375 12.03125 44.71875 
Q 8.5 49.078125 8.5 55.328125 
Q 8.5 64.0625 14.71875 69.140625 
Q 20.953125 74.21875 31.78125 74.21875 
Q 42.671875 74.21875 48.875 69.140625 
Q 55.078125 64.0625 55.078125 55.328125 
Q 55.078125 49.078125 51.53125 44.71875 
Q 48 40.375 41.703125 38.8125 
Q 48.828125 37.15625 52.796875 32.3125 
Q 56.78125 27.484375 56.78125 20.515625 
Q 56.78125 9.90625 50.3125 4.234375 
Q 43.84375 -1.421875 31.78125 -1.421875 
Q 19.734375 -1.421875 13.25 4.234375 
Q 6.78125 9.90625 6.78125 20.515625 
Q 6.78125 27.484375 10.78125 32.3125 
Q 14.796875 37.15625 21.921875 38.8125 
z
M 18.3125 54.390625 
Q 18.3125 48.734375 21.84375 45.5625 
Q 25.390625 42.390625 31.78125 42.390625 
Q 38.140625 42.390625 41.71875 45.5625 
Q 45.3125 48.734375 45.3125 54.390625 
Q 45.3125 60.0625 41.71875 63.234375 
Q 38.140625 66.40625 31.78125 66.40625 
Q 25.390625 66.40625 21.84375 63.234375 
Q 18.3125 60.0625 18.3125 54.390625 
z
" id="DejaVuSans-56"/>
       </defs>
       <use xlink:href="#DejaVuSans-48"/>
       <use x="63.623047" xlink:href="#DejaVuSans-46"/>
       <use x="95.410156" xlink:href="#DejaVuSans-56"/>
      </g>
     </g>
    </g>
   </g>
   <g id="line2d_27">
    <path clip-path="url(#p9643a14ca6)" d="M 45.321307 214.756364 
L 48.395687 214.756364 
L 51.470067 214.756364 
L 54.544447 214.756364 
L 57.618827 214.756364 
L 60.693208 214.756364 
L 63.767588 214.756364 
L 66.841968 214.756364 
L 69.916348 214.756364 
L 72.990728 214.756364 
L 76.065108 214.756364 
L 79.139489 214.756364 
L 82.213869 214.756364 
L 85.288249 214.756364 
L 88.362629 214.756364 
L 91.437009 214.756364 
L 94.511389 214.756364 
L 97.58577 214.756364 
L 100.66015 214.756364 
L 103.73453 214.756364 
L 106.80891 214.756364 
L 109.88329 214.756364 
L 112.95767 214.756364 
L 116.032051 214.756364 
L 119.106431 214.756364 
L 122.180811 214.756364 
L 125.255191 214.756364 
L 128.329571 214.756364 
L 131.403951 214.756364 
L 134.478332 214.756364 
L 137.552712 214.756364 
L 140.627092 214.756364 
L 143.701472 214.756364 
L 146.775852 214.756364 
L 149.850232 214.756364 
L 152.924613 214.756364 
L 155.998993 214.756364 
L 159.073373 214.756364 
L 162.147753 214.756364 
L 165.222133 214.756364 
L 168.296513 214.756364 
L 171.370894 214.756364 
L 174.445274 214.756364 
L 177.519654 214.756364 
L 180.594034 214.756364 
L 183.668414 214.756364 
L 186.742794 214.756364 
L 189.817175 214.756364 
L 192.891555 214.756364 
L 195.965935 214.756364 
L 199.040315 214.756364 
L 202.114695 214.756364 
L 205.189075 214.756364 
L 208.263456 214.756364 
L 211.337836 214.756364 
L 214.412216 214.756364 
L 217.486596 214.756364 
L 220.560976 214.756364 
L 223.635356 214.756364 
L 226.709737 214.756364 
L 229.784117 214.756364 
L 232.858497 214.756364 
L 235.932877 214.756364 
L 239.007257 214.756364 
L 242.081637 214.756364 
L 245.156018 214.756364 
L 248.230398 214.756364 
L 251.304778 214.756364 
L 254.379158 214.756364 
L 257.453538 214.756364 
L 260.527918 214.756364 
L 263.602299 214.756364 
L 266.676679 214.756364 
L 269.751059 214.756364 
L 272.825439 214.756364 
L 275.899819 214.756364 
L 278.974199 214.756364 
L 282.04858 214.756364 
L 285.12296 214.756364 
L 288.19734 214.756364 
L 291.27172 214.756364 
L 294.3461 214.756364 
L 297.42048 214.756364 
L 300.494861 214.756364 
L 303.569241 214.756364 
L 306.643621 214.756364 
L 309.718001 214.756364 
L 312.792381 214.756364 
L 315.866761 214.756364 
L 318.941142 214.756364 
L 322.015522 214.756364 
L 325.089902 214.756364 
L 328.164282 214.756364 
L 331.238662 214.756364 
L 334.313042 214.756364 
L 337.387423 214.756364 
L 340.461803 214.756364 
L 343.536183 214.756364 
L 346.610563 214.756364 
L 349.684943 214.756364 
" style="fill:none;stroke:#1f77b4;stroke-linecap:square;stroke-width:1.5;"/>
   </g>
   <g id="line2d_28">
    <path clip-path="url(#p9643a14ca6)" d="M 45.321307 214.756364 
L 48.395687 214.756364 
L 51.470067 214.756364 
L 54.544447 214.756364 
L 57.618827 214.756364 
L 60.693208 214.756364 
L 63.767588 214.756364 
L 66.841968 214.756364 
L 69.916348 214.756364 
L 72.990728 214.756364 
L 76.065108 214.756364 
L 79.139489 214.756364 
L 82.213869 214.756364 
L 85.288249 214.756364 
L 88.362629 214.756364 
L 91.437009 214.756364 
L 94.511389 214.756364 
L 97.58577 214.756364 
L 100.66015 214.756364 
L 103.73453 214.756364 
L 106.80891 214.756364 
L 109.88329 214.756364 
L 112.95767 214.756364 
L 116.032051 214.756364 
L 119.106431 214.756364 
L 122.180811 214.756364 
L 125.255191 214.756364 
L 128.329571 214.756364 
L 131.403951 214.756364 
L 134.478332 214.756364 
L 137.552712 214.756364 
L 140.627092 214.756364 
L 143.701472 214.756364 
L 146.775852 214.756364 
L 149.850232 214.756364 
L 152.924613 214.756364 
L 155.998993 214.756364 
L 159.073373 214.756364 
L 162.147753 214.756364 
L 165.222133 214.756364 
L 168.296513 214.756364 
L 171.370894 214.756364 
L 174.445274 214.756364 
L 177.519654 214.756364 
L 180.594034 214.756364 
L 183.668414 214.756364 
L 186.742794 214.756364 
L 189.817175 214.756364 
L 192.891555 214.756364 
L 195.965935 214.756364 
L 199.040315 214.756364 
L 202.114695 214.756364 
L 205.189075 214.756364 
L 208.263456 214.756364 
L 211.337836 214.756364 
L 214.412216 214.756364 
L 217.486596 214.756364 
L 220.560976 214.756364 
L 223.635356 214.756364 
L 226.709737 214.756364 
L 229.784117 214.756364 
L 232.858497 214.756364 
L 235.932877 214.756364 
L 239.007257 214.756364 
L 242.081637 214.756364 
L 245.156018 214.756364 
L 248.230398 214.756364 
L 251.304778 214.756364 
L 254.379158 214.756364 
L 257.453538 214.756364 
L 260.527918 214.756364 
L 263.602299 214.756364 
L 266.676679 214.756364 
L 269.751059 214.756364 
L 272.825439 214.756364 
L 275.899819 214.756364 
L 278.974199 214.756364 
L 282.04858 214.756364 
L 285.12296 214.756364 
L 288.19734 214.756364 
L 291.27172 214.756364 
L 294.3461 214.756364 
L 297.42048 214.756364 
L 300.494861 214.756364 
L 303.569241 214.756364 
L 306.643621 214.756364 
L 309.718001 214.756364 
L 312.792381 214.756364 
L 315.866761 214.756364 
L 318.941142 214.756364 
L 322.015522 214.756364 
L 325.089902 214.756364 
L 328.164282 214.756364 
L 331.238662 214.756364 
L 334.313042 214.756364 
L 337.387423 214.756364 
L 340.461803 214.756364 
L 343.536183 214.756364 
L 346.610563 214.756364 
L 349.684943 214.756364 
" style="fill:none;stroke:#ff7f0e;stroke-linecap:square;stroke-width:1.5;"/>
   </g>
   <g id="line2d_29">
    <path clip-path="url(#p9643a14ca6)" d="M 45.321307 17.083637 
L 48.395687 17.083636 
L 51.470067 25.32 
L 54.544447 25.32 
L 57.618827 25.32 
L 60.693208 25.32 
L 63.767588 25.32 
L 66.841968 25.32 
L 69.916348 25.32 
L 72.990728 25.32 
L 76.065108 25.32 
L 79.139489 25.32 
L 82.213869 25.32 
L 85.288249 25.32 
L 88.362629 25.32 
L 91.437009 25.320004 
L 94.511389 32.897454 
L 97.58577 32.897455 
L 100.66015 32.897455 
L 103.73453 32.897455 
L 106.80891 39.892028 
L 109.88329 39.892028 
L 112.95767 46.368485 
L 116.032051 46.368485 
L 119.106431 46.368485 
L 122.180811 46.368485 
L 125.255191 46.368485 
L 128.329571 46.368485 
L 131.403951 46.368485 
L 134.478332 52.382337 
L 137.552712 52.382338 
L 140.627092 52.382338 
L 143.701472 57.981442 
L 146.775852 57.981442 
L 149.850232 57.981442 
L 152.924613 63.207273 
L 155.998993 68.095953 
L 159.073373 68.095953 
L 162.147753 68.095953 
L 165.222133 68.095953 
L 168.296513 68.095953 
L 171.370894 72.679091 
L 174.445274 72.679091 
L 177.519654 72.679091 
L 180.594034 76.984463 
L 183.668414 76.984463 
L 186.742794 81.036578 
L 189.817175 84.857143 
L 192.891555 84.857143 
L 195.965935 88.465455 
L 199.040315 91.878723 
L 202.114695 214.756363 
L 205.189075 214.756355 
L 208.263456 214.756364 
L 211.337836 214.756364 
L 214.412216 214.756364 
L 217.486596 214.756364 
L 220.560976 214.756364 
L 223.635356 214.756364 
L 226.709737 214.756364 
L 229.784117 214.756364 
L 232.858497 214.756364 
L 235.932877 214.756364 
L 239.007257 214.756364 
L 242.081637 214.756364 
L 245.156018 214.756364 
L 248.230398 214.756364 
L 251.304778 214.756364 
L 254.379158 214.756364 
L 257.453538 214.756364 
L 260.527918 214.756364 
L 263.602299 214.756364 
L 266.676679 214.756364 
L 269.751059 214.756364 
L 272.825439 214.756364 
L 275.899819 214.756364 
L 278.974199 214.756364 
L 282.04858 214.756364 
L 285.12296 214.756364 
L 288.19734 214.756364 
L 291.27172 214.756364 
L 294.3461 214.756364 
L 297.42048 214.756364 
L 300.494861 214.756364 
L 303.569241 214.756364 
L 306.643621 214.756364 
L 309.718001 214.756364 
L 312.792381 214.756364 
L 315.866761 214.756364 
L 318.941142 214.756364 
L 322.015522 214.756364 
L 325.089902 214.756364 
L 328.164282 214.756364 
L 331.238662 214.756364 
L 334.313042 214.756364 
L 337.387423 214.756364 
L 340.461803 214.756364 
L 343.536183 214.756364 
L 346.610563 214.756364 
L 349.684943 214.756364 
" style="fill:none;stroke:#2ca02c;stroke-linecap:square;stroke-width:1.5;"/>
   </g>
   <g id="line2d_30">
    <path clip-path="url(#p9643a14ca6)" d="M 45.321307 214.756364 
L 48.395687 214.756364 
L 51.470067 214.756364 
L 54.544447 214.756364 
L 57.618827 214.756364 
L 60.693208 214.756364 
L 63.767588 214.756364 
L 66.841968 214.756364 
L 69.916348 214.756364 
L 72.990728 214.756364 
L 76.065108 214.756364 
L 79.139489 214.756364 
L 82.213869 214.756364 
L 85.288249 214.756364 
L 88.362629 214.756364 
L 91.437009 214.756364 
L 94.511389 214.756364 
L 97.58577 214.756364 
L 100.66015 214.756364 
L 103.73453 214.756364 
L 106.80891 214.756364 
L 109.88329 214.756364 
L 112.95767 214.756364 
L 116.032051 214.756364 
L 119.106431 214.756364 
L 122.180811 214.756364 
L 125.255191 214.756364 
L 128.329571 214.756364 
L 131.403951 214.756364 
L 134.478332 214.756364 
L 137.552712 214.756364 
L 140.627092 214.756364 
L 143.701472 214.756364 
L 146.775852 214.756364 
L 149.850232 214.756364 
L 152.924613 214.756364 
L 155.998993 214.756364 
L 159.073373 214.756364 
L 162.147753 214.756364 
L 165.222133 214.756364 
L 168.296513 214.756364 
L 171.370894 214.756364 
L 174.445274 214.756364 
L 177.519654 214.756364 
L 180.594034 214.756364 
L 183.668414 214.756364 
L 186.742794 214.756364 
L 189.817175 214.756364 
L 192.891555 214.756364 
L 195.965935 214.756364 
L 199.040315 214.756364 
L 202.114695 214.756364 
L 205.189075 214.756364 
L 208.263456 214.756364 
L 211.337836 214.756364 
L 214.412216 214.756364 
L 217.486596 214.756364 
L 220.560976 214.756364 
L 223.635356 214.756364 
L 226.709737 214.756364 
L 229.784117 214.756364 
L 232.858497 214.756364 
L 235.932877 214.756364 
L 239.007257 214.756364 
L 242.081637 214.756364 
L 245.156018 214.756364 
L 248.230398 214.756364 
L 251.304778 214.756364 
L 254.379158 214.756364 
L 257.453538 214.756364 
L 260.527918 214.756364 
L 263.602299 214.756364 
L 266.676679 214.756364 
L 269.751059 214.756364 
L 272.825439 214.756364 
L 275.899819 214.756364 
L 278.974199 214.756364 
L 282.04858 214.756364 
L 285.12296 214.756364 
L 288.19734 214.756364 
L 291.27172 214.756364 
L 294.3461 214.756364 
L 297.42048 214.756364 
L 300.494861 214.756364 
L 303.569241 214.756364 
L 306.643621 214.756364 
L 309.718001 214.756364 
L 312.792381 214.756364 
L 315.866761 214.756364 
L 318.941142 214.756364 
L 322.015522 214.756364 
L 325.089902 214.756364 
L 328.164282 214.756364 
L 331.238662 214.756364 
L 334.313042 214.756364 
L 337.387423 214.756364 
L 340.461803 214.756364 
L 343.536183 214.756364 
L 346.610563 214.756364 
L 349.684943 214.756364 
" style="fill:none;stroke:#d62728;stroke-linecap:square;stroke-width:1.5;"/>
   </g>
   <g id="patch_3">
    <path d="M 30.103125 224.64 
L 30.103125 7.2 
" style="fill:none;stroke:#000000;stroke-linecap:square;stroke-linejoin:miter;stroke-width:0.8;"/>
   </g>
   <g id="patch_4">
    <path d="M 364.903125 224.64 
L 364.903125 7.2 
" style="fill:none;stroke:#000000;stroke-linecap:square;stroke-linejoin:miter;stroke-width:0.8;"/>
   </g>
   <g id="patch_5">
    <path d="M 30.103125 224.64 
L 364.903125 224.64 
" style="fill:none;stroke:#000000;stroke-linecap:square;stroke-linejoin:miter;stroke-width:0.8;"/>
   </g>
   <g id="patch_6">
    <path d="M 30.103125 7.2 
L 364.903125 7.2 
" style="fill:none;stroke:#000000;stroke-linecap:square;stroke-linejoin:miter;stroke-width:0.8;"/>
   </g>
  </g>
 </g>
 <defs>
  <clipPath id="p9643a14ca6">
   <rect height="217.44" width="334.8" x="30.103125" y="7.2"/>
  </clipPath>
 </defs>
</svg>
